<?xml version="1.0" standalone="no"?>
<!DOCTYPE svg PUBLIC "-//W3C//DTD SVG 20010904//EN"
 "http://www.w3.org/TR/2001/REC-SVG-20010904/DTD/svg10.dtd">
<svg version="1.0" xmlns="http://www.w3.org/2000/svg"
 width="64.000000pt" height="64.000000pt" viewBox="0 0 64.000000 64.000000"
 preserveAspectRatio="xMidYMid meet">

<g transform="translate(0.000000,64.000000) scale(0.100000,-0.100000)"
fill="#000000" stroke="none">
<path d="M280 585 c-7 -8 -18 -15 -26 -15 -7 0 -18 -16 -25 -35 -12 -33 -15
-35 -61 -35 l-48 0 0 -50 c0 -47 2 -50 25 -50 30 0 30 3 3 -83 -20 -60 -27
-71 -60 -88 -56 -29 -92 -109 -48 -109 15 0 20 -7 20 -24 0 -28 42 -66 72 -66
25 0 68 44 68 70 0 19 6 20 120 20 l120 0 0 -24 c0 -28 42 -66 72 -66 25 0 68
44 68 70 0 14 7 20 21 20 20 0 21 3 14 92 -8 105 -9 108 -36 108 -12 0 -19 7
-19 20 0 16 7 20 30 20 l30 0 0 108 c0 71 -4 112 -12 120 -16 16 -200 16 -216
0 -8 -8 -12 -47 -12 -109 l0 -98 -32 9 c-21 7 -36 6 -45 -1 -18 -15 -17 -64 2
-79 13 -11 13 -15 0 -41 -8 -15 -15 -42 -15 -59 0 -42 -15 -38 -34 10 -19 49
-22 175 -4 186 7 4 28 10 48 14 29 4 35 10 35 30 0 20 -6 26 -35 30 -50 9 -62
18 -54 43 9 31 12 32 34 12 16 -14 22 -15 35 -5 18 15 19 42 3 58 -16 16 -23
15 -38 -3z m30 -25 c0 -11 -4 -20 -10 -20 -5 0 -10 9 -10 20 0 11 5 20 10 20
6 0 10 -9 10 -20z m288 -82 l3 -98 -61 0 c-60 0 -84 -16 -32 -22 16 -2 27 -9
27 -18 0 -12 -19 -15 -110 -15 l-110 0 0 25 c0 17 5 24 15 21 49 -11 130 -13
130 -2 0 6 -13 11 -30 11 l-30 0 0 80 0 80 90 0 c53 0 90 4 90 10 0 6 -37 10
-91 10 -60 0 -88 4 -84 10 4 7 43 10 98 8 l92 -3 3 -97z m-438 -18 c0 -11 5
-20 10 -20 6 0 10 9 10 20 0 12 7 20 18 20 12 0 17 -8 17 -30 0 -28 -2 -30
-37 -30 -35 0 -38 2 -38 30 0 17 5 30 10 30 6 0 10 -9 10 -20z m160 -10 c0 -5
-20 -10 -45 -10 -25 0 -45 5 -45 10 0 6 20 10 45 10 25 0 45 -4 45 -10z m-100
-121 c0 -90 30 -169 65 -169 20 0 23 6 27 50 6 58 30 90 66 90 l25 0 -20 -22
c-29 -32 -43 -62 -43 -92 0 -40 17 -31 24 12 3 24 17 49 36 67 26 25 40 30 80
30 40 0 54 -5 78 -29 34 -32 55 -81 23 -51 -49 44 -138 22 -168 -40 l-17 -35
-76 0 -76 0 -17 35 c-9 19 -30 41 -47 50 -16 8 -30 19 -30 24 0 6 26 89 45
139 2 6 9 12 15 12 6 0 10 -29 10 -71z m370 -45 c0 -14 -3 -14 -15 -4 -8 7
-15 14 -15 16 0 2 7 4 15 4 8 0 15 -7 15 -16z m-399 -93 c16 -16 29 -34 29
-40 0 -7 -32 -11 -90 -11 -58 0 -90 4 -90 11 0 24 59 69 90 69 22 0 41 -9 61
-29z m380 0 c16 -16 29 -34 29 -40 0 -7 -32 -11 -90 -11 -58 0 -90 4 -90 11 0
24 59 69 90 69 22 0 41 -9 61 -29z m-469 -93 c2 -17 10 -23 28 -23 18 0 26 6
28 23 4 27 22 30 22 3 0 -25 -26 -51 -50 -51 -24 0 -50 26 -50 51 0 27 18 24
22 -3z m380 0 c2 -17 10 -23 28 -23 18 0 26 6 28 23 4 27 22 30 22 3 0 -25
-26 -51 -50 -51 -24 0 -50 26 -50 51 0 27 18 24 22 -3z m-342 2 c0 -5 -4 -10
-10 -10 -5 0 -10 5 -10 10 0 6 5 10 10 10 6 0 10 -4 10 -10z m380 0 c0 -5 -4
-10 -10 -10 -5 0 -10 5 -10 10 0 6 5 10 10 10 6 0 10 -4 10 -10z"/>
<path d="M420 506 c0 -7 9 -25 20 -39 11 -14 20 -35 20 -46 0 -18 6 -21 40
-21 34 0 40 3 40 21 0 11 9 32 20 46 36 46 28 53 -60 53 -61 0 -80 -3 -80 -14z
m125 -26 c-10 -11 -30 -20 -45 -20 -15 0 -35 9 -45 20 -18 20 -17 20 45 20 62
0 63 0 45 -20z m-25 -50 c0 -5 -9 -10 -20 -10 -11 0 -20 5 -20 10 0 6 9 10 20
10 11 0 20 -4 20 -10z"/>
</g>
</svg>
