<?xml version="1.0" standalone="no"?>
<!DOCTYPE svg PUBLIC "-//W3C//DTD SVG 20010904//EN"
 "http://www.w3.org/TR/2001/REC-SVG-20010904/DTD/svg10.dtd">
<svg version="1.0" xmlns="http://www.w3.org/2000/svg"
 width="256.000000pt" height="256.000000pt" viewBox="0 0 256.000000 256.000000"
 preserveAspectRatio="xMidYMid meet">

<g transform="translate(0.000000,256.000000) scale(0.100000,-0.100000)"
fill="#000000" stroke="none">
<path d="M505 2535 c-21 -20 -25 -34 -25 -80 l0 -55 -118 0 c-158 0 -209 -15
-277 -83 -91 -92 -85 -15 -85 -1117 0 -1101 -6 -1026 84 -1116 91 -90 5 -84
1196 -84 1191 0 1105 -6 1196 84 90 90 84 16 84 1111 0 1101 5 1031 -84 1121
-69 69 -119 84 -277 84 l-117 0 -4 61 c-4 49 -9 66 -27 80 -30 25 -62 24 -95
-2 -23 -18 -26 -28 -26 -80 l0 -59 -165 0 -165 0 0 39 c0 79 -29 121 -83 121
-42 0 -67 -39 -67 -103 l0 -57 -170 0 -170 0 0 58 c0 48 -4 62 -23 80 -59 56
-127 6 -127 -93 l0 -45 -165 0 -165 0 0 59 c0 52 -3 62 -26 80 -35 28 -69 26
-99 -4z m-25 -340 c0 -46 4 -60 25 -80 30 -31 71 -32 102 -3 19 18 23 32 23
80 l0 58 165 0 165 0 0 -45 c0 -77 29 -115 86 -115 43 0 64 33 64 100 l0 60
170 0 170 0 0 -60 c0 -67 21 -100 64 -100 57 0 86 38 86 115 l0 45 165 0 165
0 0 -57 c0 -44 5 -62 22 -80 29 -31 72 -30 103 2 21 20 25 34 25 80 l0 55 115
0 c189 0 215 -25 215 -212 l0 -118 -1130 0 -1130 0 0 115 c0 189 25 215 213
215 l117 0 0 -55z m1930 -1187 c0 -739 -1 -764 -20 -795 -40 -67 28 -63 -1110
-63 -1138 0 -1070 -4 -1110 63 -19 31 -20 56 -20 795 l0 762 1130 0 1130 0 0
-762z"/>
<path d="M414 1510 c-49 -20 -54 -42 -54 -232 0 -173 1 -178 24 -205 l24 -28
192 0 c249 0 230 -19 230 235 0 252 17 234 -217 237 -98 2 -188 -2 -199 -7z
m266 -230 l0 -91 -82 3 -83 3 -3 74 c-2 41 -1 80 2 88 4 9 28 13 86 13 l80 0
0 -90z"/>
<path d="M1783 1513 c-48 -9 -53 -33 -53 -234 0 -253 -19 -234 230 -234 l192
0 24 28 c23 27 24 32 24 207 0 175 -1 180 -24 207 l-24 28 -174 1 c-95 1 -183
0 -195 -3z m262 -233 l0 -85 -82 -3 -83 -3 0 91 0 91 83 -3 82 -3 0 -85z"/>
<path d="M1331 1375 c-54 -52 -102 -95 -107 -95 -6 0 -25 16 -44 35 -60 62
-144 40 -142 -37 1 -27 15 -46 81 -112 108 -105 107 -105 268 56 125 124 146
156 132 194 -9 27 -47 54 -73 54 -10 0 -61 -42 -115 -95z"/>
<path d="M380 843 c-20 -26 -21 -36 -18 -215 3 -164 5 -190 21 -205 15 -16 41
-18 205 -21 179 -3 189 -2 215 18 l27 21 0 195 c0 181 -1 195 -20 214 -19 19
-33 20 -214 20 l-195 0 -21 -27z m300 -208 l0 -85 -85 0 -85 0 0 85 0 85 85 0
85 0 0 -85z"/>
<path d="M1069 851 c-24 -19 -24 -22 -24 -211 l0 -192 28 -24 c27 -23 32 -24
207 -24 175 0 180 1 207 24 l28 24 0 192 c0 249 19 230 -235 230 -170 0 -190
-2 -211 -19z m299 -213 l-3 -83 -85 0 -85 0 -3 83 -3 82 91 0 91 0 -3 -82z"/>
<path d="M1750 850 c-19 -19 -20 -33 -20 -214 l0 -195 27 -21 c26 -20 36 -21
215 -18 164 3 190 5 205 21 16 15 18 41 21 205 3 179 2 189 -18 215 l-21 27
-195 0 c-181 0 -195 -1 -214 -20z m300 -215 l0 -85 -85 0 -85 0 0 85 0 85 85
0 85 0 0 -85z"/>
</g>
</svg>
