<?xml version="1.0" standalone="no"?>
<!DOCTYPE svg PUBLIC "-//W3C//DTD SVG 20010904//EN"
 "http://www.w3.org/TR/2001/REC-SVG-20010904/DTD/svg10.dtd">
<svg version="1.0" xmlns="http://www.w3.org/2000/svg"
 width="64.000000pt" height="64.000000pt" viewBox="0 0 64.000000 64.000000"
 preserveAspectRatio="xMidYMid meet">

<g transform="translate(0.000000,64.000000) scale(0.100000,-0.100000)"
fill="#000000" stroke="none">
<path d="M0 530 c0 -29 1 -30 50 -30 l50 0 2 -207 c3 -194 4 -208 22 -211 24
-5 36 14 36 56 0 17 5 32 10 32 6 0 10 -21 10 -46 0 -41 2 -45 23 -42 18 2 23
10 25 46 4 54 20 54 24 0 2 -33 8 -44 22 -46 24 -5 36 14 36 56 0 17 5 32 10
32 6 0 10 -20 10 -45 0 -41 2 -45 25 -45 23 0 25 4 25 45 0 25 5 45 10 45 6 0
10 -15 10 -32 0 -42 12 -61 36 -56 14 2 20 13 22 46 4 54 20 54 24 0 2 -36 7
-44 26 -46 l22 -3 0 210 0 211 55 0 c54 0 55 0 55 30 l0 30 -320 0 -320 0 0
-30z m100 0 c0 -17 -7 -20 -40 -20 -33 0 -40 3 -40 20 0 17 7 20 40 20 33 0
40 -3 40 -20z m410 -25 l0 -45 -195 0 -195 0 0 45 0 45 195 0 195 0 0 -45z
m110 24 c0 -18 -5 -20 -42 -17 -31 2 -44 8 -46 21 -3 14 4 17 42 17 40 0 46
-3 46 -21z m-110 -94 c0 -13 -28 -15 -195 -15 -167 0 -195 2 -195 15 0 13 28
15 195 15 167 0 195 -2 195 -15z m0 -75 c0 -45 -1 -46 -35 -24 -23 15 -27 15
-50 0 -31 -20 -49 -20 -80 0 -23 15 -27 15 -50 0 -31 -20 -49 -20 -80 0 -23
15 -27 15 -50 0 -37 -24 -45 -20 -45 24 l0 40 195 0 195 0 0 -40z m-294 -45
c25 -19 49 -19 79 1 23 15 27 15 50 0 31 -20 49 -20 80 0 22 14 26 14 55 -2
20 -12 30 -26 30 -42 0 -23 0 -23 -30 -5 -29 17 -32 17 -64 -1 -33 -18 -35
-18 -65 0 -30 18 -32 18 -62 0 -30 -18 -32 -18 -65 0 -32 18 -35 18 -63 1 -38
-22 -41 -22 -41 6 0 15 11 28 33 39 40 21 39 21 63 3z m10 -72 c24 -16 28 -15
60 2 33 18 35 18 67 0 33 -17 35 -17 66 1 29 17 33 17 59 2 15 -9 28 -26 30
-37 3 -21 0 -21 -192 -21 -180 0 -196 1 -196 18 0 17 43 49 68 51 7 1 24 -7
38 -16z m-86 -108 c0 -19 -4 -35 -10 -35 -5 0 -10 16 -10 35 0 19 5 35 10 35
6 0 10 -16 10 -35z m67 -27 c-2 -13 -4 -3 -4 22 0 25 2 35 4 23 2 -13 2 -33 0
-45z m83 27 c0 -19 -4 -35 -10 -35 -5 0 -10 16 -10 35 0 19 5 35 10 35 6 0 10
-16 10 -35z m67 -27 c-2 -13 -4 -3 -4 22 0 25 2 35 4 23 2 -13 2 -33 0 -45z
m83 27 c0 -19 -4 -35 -10 -35 -5 0 -10 16 -10 35 0 19 5 35 10 35 6 0 10 -16
10 -35z m67 -27 c-2 -13 -4 -3 -4 22 0 25 2 35 4 23 2 -13 2 -33 0 -45z"/>
</g>
</svg>
